<svg t="1680589626331" class="icon" viewBox="0 0 1024 1024" version="1.1" xmlns="http://www.w3.org/2000/svg" p-id="2627"><path d="M854.5671 664.59542c-57.690934 61.711504-110.574375 91.26561-179.038676 91.26561-83.929528 0-93.988628-54.441936-93.988628-54.441936s-33.31885 29.989011-60.311621 40.964994c-53.606919 21.820981-118.079302 17.600867-165.695786-10.8143-26.627451-15.882736-48.263214-40.322357-64.904219-73.316819-16.637935-32.988322-24.960485-69.190849-24.960485-108.60144 0-48.574299 12.919241-97.227392 38.754652-145.951093 25.830295-48.727795 57.922201-85.314061 96.284927-109.75266 38.347376-24.438599 75.593675-35.749202 111.731734-35.749202 27.581172 0 53.886281 6.045693 78.930677 19.943215 24.950252 13.848403 46.429449 34.917254 64.459081 63.173808 0.107447-0.046049 0.202615-0.116657 0.310062-0.160659l0.028653-0.12996 0.085958 0.070608c6.353708-2.615571 13.341866-4.075829 20.687158-4.075829 29.141714 0 52.767807 22.76754 52.767807 50.855248 0 4.059456-0.621147 7.957229-1.554402 11.739369l0.354064 0.288572-39.670511 178.164772c-9.504468 42.763966-14.262842 66.443271-14.262842 71.02973 0 26.143427 26.740014 25.191752 88.046289-17.540492 32.558533-22.468734 52.757574-51.964512 71.881121-89.23537 19.117406-37.267788 28.681226-75.718519 28.681226-115.345028 0-46.26879-12.291954-88.125083-36.876885-128.304178-54.939263-89.792049-155.206898-139.65162-286.231023-139.65162-71.108524 0-136.056746 13.280468-194.86206 45.352931-58.799174 32.06837-104.387465 75.295893-136.750547 135.186935-32.361035 59.888995-48.54053 124.103506-48.54053 192.638415 0 71.753207 16.180518 133.546575 48.54053 185.383174 69.301366 111.00314 190.447517 146.497539 343.91991 146.497539 79.616292 0 145.80169-11.154038 200.110597-35.911908 31.233352-14.232143 57.592696-35.579333 76.095096-53.268204l0.299829 0.343831c8.036024-6.074346 18.033725-9.846252 29.040407-9.846252 26.122961 0 47.303352 20.409842 47.303352 45.590338 0 13.33982-6.04774 25.227568-15.524578 33.562397l0.095167 0.110517c-0.00921 0.00921-0.017396 0.017396-0.026606 0.024559-39.311331 33.305547-86.067214 59.650565-140.272767 79.056544-54.199413 19.392676-119.499651 29.093619-195.890482 29.093619-70.370721 0-135.27494-8.705266-194.703447-26.116821-59.44181-17.413602-110.081141-43.61331-151.920038-78.587869-41.838897-34.982746-73.383334-75.225285-94.615914-120.755248-26.627451-57.738006-39.943734-120.052237-39.943734-186.964182 0-74.538647 15.84999-145.561213 47.545876-213.078956 38.674834-82.790588 93.585445-146.180314 164.753321-190.170201 71.16583-43.991933 157.461241-65.991993 258.894422-65.991993 78.614475 0 151.10344 15.500019 213.70829 46.511313 62.605873 31.009248 111.974257 77.215616 148.109246 138.622174 30.747281 52.849672 46.119387 110.278639 46.119387 172.299181C951.565271 517.196349 919.232888 595.860966 854.5671 664.59542zM583.679529 374.226147c-19.934005-20.687158-40.143279-28.692482-68.785619-28.692482-18.901489 0-34.250058 2.148943-50.929949 11.114129-16.685008 8.959046-34.478256 23.367197-50.134841 43.223431-15.649422 19.846-33.093722 43.972491-42.538839 72.376401-9.449209 28.399817-14.176884 54.452169-14.176884 78.171384 0 37.772278 9.601682 67.143213 28.79379 88.094384 19.192108 20.956288 41.192168 31.431873 65.99404 31.431873 16.543791 0 33.957393-4.613064 52.268434-13.848403 18.304901-9.240455 41.513486-22.952758 58.195424-41.158399 16.685008-18.197454 31.977295-41.286312 42.605354-69.27476 10.636245-27.990494 15.94925-56.040341 15.94925-84.171028C620.919688 423.995667 603.605348 394.906142 583.679529 374.226147z"></path></svg>
