<svg t="1678784469916" class="icon" viewBox="0 0 1024 1024" version="1.1" xmlns="http://www.w3.org/2000/svg" p-id="6052"><path d="M402.944 186.88h207.872s73.216-81.408 72.192-90.112c-1.024-8.704 0-27.648-46.08-33.792-52.736-11.776-205.824-10.24-251.904 0-26.112 8.192-57.856 22.016-44.032 44.032s61.952 79.872 61.952 79.872zM616.448 237.056H409.6s-220.16 74.752-290.816 325.12c-9.216 48.128-48.128 236.032 117.248 348.16 37.376 18.432 156.16 59.904 286.72 54.784 48.128 0 337.408 10.752 388.096-236.032 4.096-38.4 53.248-335.872-294.4-492.032z m5.632 423.936c20.48 0 37.376 16.896 37.376 37.376s-16.896 37.376-37.376 37.376h-67.584v81.408c0 21.504-17.408 38.912-38.912 38.912h-3.584c-21.504 0-38.912-17.408-38.912-38.912v-81.408h-71.68c-20.48 0-37.376-16.896-37.376-37.376s16.896-37.376 37.376-37.376h71.68v-36.352h-66.56c-20.48 0-37.376-16.896-37.376-37.376s16.896-37.376 37.376-37.376h51.2l-66.56-67.584c-12.288-13.824-10.752-35.328 3.072-47.104 12.8-11.264 32.256-11.264 45.056 0.512l70.144 71.168c1.536 2.048 3.072 3.584 4.608 5.632 1.024-1.536 2.048-3.072 3.584-4.608l68.608-72.704c12.8-13.312 33.792-13.824 47.104-1.536 13.312 12.8 13.824 33.792 1.536 47.616l-65.024 68.608h56.832c20.48 0 37.376 16.896 37.376 37.376s-16.896 37.376-37.376 37.376h-73.216v36.352h68.608z" p-id="6053"></path><path d="M513.024 550.4h1.536c-0.512-0.512-0.512-1.024-1.024-1.024 0 0 0 0.512-0.512 1.024z" fill="#F4C625" p-id="6054"></path><path d="M514.048 549.376c7.168-10.752 7.168-25.088 0.512-35.84-7.168 10.752-7.168 24.576-0.512 35.84z" p-id="6055"></path></svg>
