<?xml version="1.0" standalone="no"?><!DOCTYPE svg PUBLIC "-//W3C//DTD SVG 1.1//EN" "http://www.w3.org/Graphics/SVG/1.1/DTD/svg11.dtd"><svg t="1708419952949" class="icon" viewBox="0 0 1024 1024" version="1.1" xmlns="http://www.w3.org/2000/svg" p-id="7507" xmlns:xlink="http://www.w3.org/1999/xlink" width="128" height="128"><path d="M711.80989604 514.90039088a196.3476566 196.3476566 0 0 0-114.96093802 355.37109338 196.28906272 196.28906272 0 0 0 253.82812559-20.39062467 29.38476585 29.38476585 0 1 0-41.60156264-41.51367184c-4.98046844 5.15625003-10.48828089 9.81445298-16.28906264 13.79882804a137.90039037 137.90039037 0 0 1-212.05078137-67.32421892l-2.08007831-6.79687514-2.10937449-7.4414061h301.49414007c16.20117185-0.11718773 29.29687505-13.24218787 29.44335972-29.4140628a195.58593712 195.58593712 0 0 0-178.41796883-195.49804633l-8.61328108-0.58593786-8.642578-0.20507776zM206.58528634 122.35156236A48.63281247 48.63281247 0 0 0 158.56770868 166.17968721l-0.23437547 4.39453133v672.1582035a48.63281247 48.63281247 0 0 0 43.85742179 48.01757767l4.3652344 0.23437546h234.87304677a29.41406278 29.41406278 0 0 0 3.51562491-58.47656239l-3.36914025-0.26367237H217.22005187V181.23828102h585.32226558v253.88671869a29.41406278 29.41406278 0 0 0 58.50585931 3.51562492l0.29296932-3.33984332V170.60351548a48.63281247 48.63281247 0 0 0-43.85742178-48.04687461L813.11848988 122.35156236H206.58528634z m505.25390662 451.37695332a138.22265663 138.22265663 0 0 1 130.66406202 94.57031259l1.87500057 6.06445262 2.10937449 7.47070379h-269.29687492l2.05078139-7.44140686a137.57812487 137.57812487 0 0 1 126.21093759-100.48828132l6.38671886-0.17578082zM648.20638055 291.68749997a41.1328125 41.1328125 0 0 1 4.57031215 82.11914035l-4.39453133 0.11718772H371.14583328a41.1328125 41.1328125 0 0 1-4.04296893-82.14843727l4.04296893-0.0878908h277.03125033z" p-id="7508"></path></svg>