<?xml version="1.0" standalone="no"?><!DOCTYPE svg PUBLIC "-//W3C//DTD SVG 1.1//EN" "http://www.w3.org/Graphics/SVG/1.1/DTD/svg11.dtd"><svg t="1705546156720" class="icon" viewBox="0 0 1024 1024" version="1.1" xmlns="http://www.w3.org/2000/svg" p-id="16647" xmlns:xlink="http://www.w3.org/1999/xlink" width="48" height="48"><path d="M800 320h-320c-19.2 0-32-12.8-32-32v-64c0-19.2 12.8-32 32-32h320c19.2 0 32 12.8 32 32v64c0 19.2-12.8 32-32 32M800 576h-320c-19.2 0-32-12.8-32-32v-64c0-19.2 12.8-32 32-32h320c19.2 0 32 12.8 32 32v64c0 19.2-12.8 32-32 32M800 832h-320c-19.2 0-32-12.8-32-32v-64c0-19.2 12.8-32 32-32h320c19.2 0 32 12.8 32 32v64c0 19.2-12.8 32-32 32M258.752 655.552c25.6 25.6 64 6.4 64-25.6v-243.2c0-32-38.4-51.2-64-25.6l-121.6 121.6c-12.8 12.8-12.8 38.4 0 51.2l121.6 121.6z" p-id="16648"></path></svg>