<svg t="1679111214612" class="icon" viewBox="0 0 1024 1024" version="1.1" xmlns="http://www.w3.org/2000/svg" p-id="3902"><path d="M946.2 553.66H766.9l0.35 73.56h-63.78l-0.35-73.56h-382l0.35 73.56h-63.78l-0.35-73.56H65v281.23a59.79 59.79 0 0 0 59.79 59.79h774.42A59.79 59.79 0 0 0 959 834.89V553.7q-6.4-0.03-12.8-0.04zM77.8 502.12h179.62l0.22-17.4a16 16 0 0 1 16-15.79h31.79a16 16 0 0 1 16 16.2l-0.21 17h381.83l0.22-17.4a16 16 0 0 1 16-15.79h31.78a16 16 0 0 1 16 16.2l-0.22 17h192V352.55a64 64 0 0 0-63.78-63.78H767.54V193.1a64 64 0 0 0-63.78-63.78H320.24a64 64 0 0 0-63.78 63.78v95.67H128.9a64 64 0 0 0-63.78 63.78v149.53q6.34 0.03 12.68 0.04z m243.27-308.91l0.11-0.11h381.64l0.11 0.11v95.56H321.07z" p-id="3903"></path></svg>
