<?xml version="1.0" standalone="no"?><!DOCTYPE svg PUBLIC "-//W3C//DTD SVG 1.1//EN" "http://www.w3.org/Graphics/SVG/1.1/DTD/svg11.dtd"><svg t="1708418489948" class="icon" viewBox="0 0 1024 1024" version="1.1" xmlns="http://www.w3.org/2000/svg" p-id="1033" xmlns:xlink="http://www.w3.org/1999/xlink" width="48" height="48"><path d="M825.6 64H198.4C124.2 64 64 124.2 64 198.4v627.2C64 899.8 124.2 960 198.4 960h627.2c74.2 0 134.4-60.2 134.4-134.4V198.4C960 124.2 899.8 64 825.6 64z m89.6 761.6c0 49.4-40.2 89.6-89.6 89.6H198.4c-49.4 0-89.6-40.2-89.6-89.6V198.4c0-49.4 40.2-89.6 89.6-89.6h627.2c49.4 0 89.6 40.2 89.6 89.6v627.2z m0 0" p-id="1034"></path><path d="M556.8 243.2h268.8v89.6H556.8v-89.6z m0 134.4h268.8v89.6H556.8v-89.6z m-358.4 224h627.2v44.8H198.4v-44.8z m0 134.4h627.2v44.8H198.4V736z m0-537.6H512V512H198.4V198.4z m0 0" p-id="1035"></path></svg>