<?xml version="1.0" standalone="no"?><!DOCTYPE svg PUBLIC "-//W3C//DTD SVG 1.1//EN" "http://www.w3.org/Graphics/SVG/1.1/DTD/svg11.dtd"><svg t="1719994104753" class="icon" viewBox="0 0 1024 1024" version="1.1" xmlns="http://www.w3.org/2000/svg" p-id="20525" xmlns:xlink="http://www.w3.org/1999/xlink" width="16" height="16"><path d="M864 98H162a64.19 64.19 0 0 0-64 64v158a64.19 64.19 0 0 0 64 64h702a64.19 64.19 0 0 0 64-64V162a64.19 64.19 0 0 0-64-64z m-32 214H194a24 24 0 0 1-24-24v-94a24 24 0 0 1 24-24h638a24 24 0 0 1 24 24v94a24 24 0 0 1-24 24zM384 448H162a64.19 64.19 0 0 0-64 64v352a64.19 64.19 0 0 0 64 64h222a64.19 64.19 0 0 0 64-64V512a64.19 64.19 0 0 0-64-64z m-32 408H194a24 24 0 0 1-24-24V544a24 24 0 0 1 24-24h158a24 24 0 0 1 24 24v288a24 24 0 0 1-24 24z m539-387H533.71c-20.19 0-37.09 16.52-36.7 36.7A36 36 0 0 0 533 541h357.29c20.19 0 37.09-16.52 36.7-36.7A36 36 0 0 0 891 469z m0 367H533.71c-20.19 0-37.09 16.52-36.7 36.7A36 36 0 0 0 533 908h357.29c20.19 0 37.09-16.52 36.7-36.7A36 36 0 0 0 891 836z m0-183.5H533.71c-20.19 0-37.09 16.52-36.7 36.7a36 36 0 0 0 36 35.3h357.28c20.19 0 37.09-16.52 36.7-36.7A36 36 0 0 0 891 652.5z" p-id="20526"></path></svg>