<svg legacy-metrics="false" node-id="1" sillyvg="true" template-height="1024" template-width="1024" version="1.1" viewBox="0 0 1024 1024" width="1024"
    xmlns="http://www.w3.org/2000/svg"
    xmlns:xlink="http://www.w3.org/1999/xlink">
    <defs node-id="89">
        <linearGradient gradientUnits="objectBoundingBox" id="linearGradient-1" node-id="5" x1="0.5" x2="0.5" y1="1" y2="-0.41476682">
            <stop offset="0" stop-color="#ffdc4d" stop-opacity="0"></stop>
            <stop offset="1" stop-color="#f4b538"></stop>
        </linearGradient>
        <linearGradient gradientUnits="objectBoundingBox" id="linearGradient-2" node-id="8" x1="0.5" x2="0.5" y1="1" y2="-0.41476682">
            <stop offset="0" stop-color="#ffdc4d" stop-opacity="0"></stop>
            <stop offset="1" stop-color="#f4b538"></stop>
        </linearGradient>
        <linearGradient gradientUnits="objectBoundingBox" id="linearGradient-3" node-id="11" x1="0.5455936" x2="0.22161046" y1="0.5" y2="0.08497787">
            <stop offset="0" stop-color="#f4b538"></stop>
            <stop offset="1" stop-color="#ffdc4d"></stop>
        </linearGradient>
        <linearGradient gradientUnits="objectBoundingBox" id="linearGradient-4" node-id="14" x1="0.86441636" x2="-0.031187918" y1="1.0733286" y2="-0.18481098">
            <stop offset="0" stop-color="#f4b538"></stop>
            <stop offset="1" stop-color="#ffdc4d"></stop>
        </linearGradient>
        <linearGradient gradientUnits="objectBoundingBox" id="linearGradient-5" node-id="17" x1="0.68781644" x2="0.37372607" y1="0.8848454" y2="0.27096847">
            <stop offset="0" stop-color="#f4b538"></stop>
            <stop offset="1" stop-color="#ffdc4d"></stop>
        </linearGradient>
        <linearGradient gradientUnits="objectBoundingBox" id="linearGradient-6" node-id="20" x1="0.52374053" x2="0.4348862" y1="1" y2="-0.20684151">
            <stop offset="0" stop-color="#f4b538"></stop>
            <stop offset="1" stop-color="#ffdc4d"></stop>
        </linearGradient>
        <linearGradient gradientUnits="objectBoundingBox" id="linearGradient-7" node-id="23" x1="0.4525116" x2="0.9923633" y1="0.9971597" y2="0.9971597">
            <stop offset="0" stop-color="#ffdc4d"></stop>
            <stop offset="1" stop-color="#f4b538"></stop>
        </linearGradient>
        <linearGradient gradientUnits="objectBoundingBox" id="linearGradient-8" node-id="26" x1="0.5474884" x2="0.007636726" y1="0.9971597" y2="0.9971597">
            <stop offset="0" stop-color="#ffdc4d"></stop>
            <stop offset="1" stop-color="#f4b538"></stop>
        </linearGradient>
        <linearGradient gradientUnits="objectBoundingBox" id="linearGradient-9" node-id="29" x1="0.4525116" x2="0.9923633" y1="0.9971597" y2="0.9971597">
            <stop offset="0" stop-color="#ffdc4d"></stop>
            <stop offset="1" stop-color="#f4b538"></stop>
        </linearGradient>
        <linearGradient gradientUnits="objectBoundingBox" id="linearGradient-10" node-id="32" x1="0.5" x2="0.5" y1="-0.19003879" y2="1">
            <stop offset="0" stop-color="#ffcda5"></stop>
            <stop offset="1" stop-color="#ffe8d1"></stop>
        </linearGradient>
        <linearGradient gradientUnits="objectBoundingBox" id="linearGradient-11" node-id="35" x1="0.86275023" x2="-0.000000000000027057475" y1="-0.028050492" y2="-0.028050492">
            <stop offset="0" stop-color="#1d181c"></stop>
            <stop offset="0.3" stop-color="#2c2422"></stop>
            <stop offset="0.5" stop-color="#42352c"></stop>
            <stop offset="0.7" stop-color="#57352c"></stop>
            <stop offset="1" stop-color="#923629"></stop>
        </linearGradient>
        <linearGradient gradientUnits="objectBoundingBox" id="linearGradient-12" node-id="41" x1="-0.08680927" x2="1.2003694" y1="0.6510641" y2="0.5">
            <stop offset="0" stop-color="#41b093"></stop>
            <stop offset="1" stop-color="#184657"></stop>
        </linearGradient>
        <linearGradient gradientUnits="objectBoundingBox" id="linearGradient-13" node-id="44" x1="0.5" x2="0.5" y1="0" y2="1">
            <stop offset="0" stop-color="#fff2df"></stop>
            <stop offset="1" stop-color="#fee0bc"></stop>
        </linearGradient>
        <linearGradient gradientUnits="objectBoundingBox" id="linearGradient-14" node-id="47" x1="0.20414202" x2="0.6435098" y1="0.23445843" y2="1">
            <stop offset="0" stop-color="#fff2df"></stop>
            <stop offset="1" stop-color="#fee0bc"></stop>
        </linearGradient>
        <linearGradient gradientUnits="objectBoundingBox" id="linearGradient-15" node-id="50" x1="0.49999997" x2="0.49999997" y1="0" y2="0.99999994">
            <stop offset="0" stop-color="#fff2df"></stop>
            <stop offset="1" stop-color="#fee0bc"></stop>
        </linearGradient>
        <linearGradient gradientUnits="objectBoundingBox" id="linearGradient-16" node-id="53" x1="-0.26255283" x2="1.3051119" y1="0.4520975" y2="0.51275104">
            <stop offset="0" stop-color="#ffdc4d"></stop>
            <stop offset="1" stop-color="#f4b538"></stop>
        </linearGradient>
    </defs>
    <path d="M 0.00 0.00 L 1024.00 0.00 L 1024.00 1024.00 L 0.00 1024.00 Z" fill="none" id="矩形" node-id="57" stroke="none" target-height="1024" target-width="1024" target-x="0" target-y="0"></path>
    <g node-id="91">
        <path d="M 102.23 489.72 C 58.97 405.23 67.78 332.99 128.67 272.99 C 219.99 183.01 316.51 214.61 348.96 239.55 C 381.41 264.49 450.25 336.44 549.83 213.73 C 649.41 91.03 749.19 193.97 738.81 272.99 C 728.44 352.02 712.09 441.00 898.70 441.11 C 1023.10 441.19 1023.10 503.52 898.70 628.11 C 816.61 686.80 808.94 735.29 875.67 773.58 C 942.41 811.86 934.52 844.38 852.03 871.15 C 657.79 912.58 472.29 923.97 295.55 905.30 C 118.80 886.64 83.97 849.99 191.04 795.37 C 222.84 753.89 202.05 735.01 128.67 738.72 C 18.58 744.29 -7.14 650.48 102.23 628.11 C 175.15 613.20 175.15 567.07 102.23 489.72 Z" fill="#f1bc01" fill-opacity="0.05" fill-rule="evenodd" group-id="1" id="路径-56" node-id="58" stroke-linecap="butt" stroke-opacity="0.05" stroke-width="1" target-height="756.95703" target-width="959.91644" target-x="32.023376" target-y="157"></path>
    </g>
    <path d="M 237.00 312.12 C 237.00 326.50 222.32 338.00 203.77 338.00 L 101.00 338.00 C 82.45 336.85 67.00 325.93 67.00 310.98 C 67.00 301.20 73.95 292.57 84.00 287.98 C 83.23 286.25 82.45 284.52 82.45 282.80 C 82.45 273.02 92.50 264.40 105.64 264.40 C 111.05 264.40 115.68 266.12 119.55 268.43 C 128.82 255.20 145.82 246.00 165.91 246.00 C 193.73 246.00 216.14 263.82 216.14 285.68 L 216.14 287.98 C 228.50 292.00 237.00 301.20 237.00 312.12 Z" fill="url(#linearGradient-1)" fill-rule="evenodd" id="路径" node-id="59" stroke="none" target-height="92" target-width="170" target-x="67" target-y="246"></path>
    <path d="M 781.00 281.31 C 781.00 292.25 770.72 301.00 757.74 301.00 L 685.80 301.00 C 672.82 300.12 662.00 291.81 662.00 280.44 C 662.00 273.00 666.87 266.44 673.90 262.94 C 673.36 261.62 672.82 260.31 672.82 259.00 C 672.82 251.56 679.85 245.00 689.05 245.00 C 692.83 245.00 696.08 246.31 698.78 248.06 C 705.27 238.00 717.17 231.00 731.24 231.00 C 750.71 231.00 766.40 244.56 766.40 261.19 L 766.40 262.94 C 775.05 266.00 781.00 273.00 781.00 281.31 Z" fill="url(#linearGradient-2)" fill-rule="evenodd" id="路径" node-id="60" stroke="none" target-height="70" target-width="119" target-x="662" target-y="231"></path>
    <path d="M 574.00 878.50 C 574.00 887.61 545.57 895.00 510.50 895.00 C 475.43 895.00 447.00 887.61 447.00 878.50 C 447.00 869.39 475.43 862.00 510.50 862.00 C 545.57 862.00 574.00 869.39 574.00 878.50 Z" fill="#fee3b1" fill-rule="evenodd" id="椭圆形" node-id="61" stroke="none" target-height="33" target-width="127" target-x="447" target-y="862"></path>
    <path d="M 642.33 807.00 L 345.67 807.00 L 341.59 806.73 L 337.75 806.00 L 334.12 804.82 L 330.66 803.19 L 327.53 801.20 L 324.69 798.86 L 322.17 796.17 L 320.06 793.24 L 318.33 790.02 L 317.06 786.61 L 316.28 783.01 L 316.00 779.20 L 316.00 584.60 L 316.28 580.79 L 317.06 577.19 L 318.33 573.78 L 320.06 570.56 L 322.17 567.63 L 324.69 564.94 L 327.53 562.60 L 330.66 560.61 L 334.12 558.98 L 337.75 557.80 L 341.59 557.07 L 345.67 556.80 L 375.33 556.80 L 375.33 501.20 L 375.62 493.51 L 376.43 486.03 L 377.75 478.75 L 379.57 471.64 L 381.90 464.64 L 384.67 457.90 L 387.88 451.38 L 391.54 445.07 L 395.61 439.02 L 400.05 433.26 L 404.87 427.78 L 410.09 422.57 L 415.62 417.70 L 421.46 413.19 L 427.61 409.02 L 434.11 405.18 L 440.81 401.77 L 447.75 398.76 L 454.96 396.16 L 462.46 393.97 L 470.03 392.26 L 477.80 391.03 L 485.78 390.27 L 494.00 390.00 L 502.22 390.27 L 510.20 391.03 L 517.97 392.26 L 525.55 393.97 L 533.04 396.16 L 540.25 398.76 L 547.19 401.77 L 553.89 405.18 L 560.39 409.02 L 566.54 413.19 L 572.38 417.70 L 577.91 422.57 L 583.13 427.78 L 587.95 433.26 L 592.39 439.02 L 596.46 445.07 L 600.12 451.38 L 603.33 457.90 L 606.10 464.64 L 608.43 471.64 L 610.25 478.75 L 611.57 486.03 L 612.38 493.51 L 612.67 501.20 L 612.67 556.80 L 642.33 556.80 L 646.41 557.07 L 650.25 557.80 L 653.88 558.98 L 657.34 560.61 L 660.47 562.60 L 663.31 564.94 L 665.83 567.63 L 667.94 570.56 L 669.67 573.78 L 670.94 577.19 L 671.72 580.79 L 672.00 584.60 L 672.00 779.20 L 671.72 783.01 L 670.94 786.61 L 669.67 790.02 L 667.94 793.24 L 665.83 796.17 L 663.31 798.86 L 660.47 801.20 L 657.34 803.19 L 653.88 804.82 L 650.25 806.00 L 646.41 806.73 L 642.33 807.00 Z M 478.67 692.85 L 478.67 737.10 L 478.92 739.63 L 479.59 741.95 L 480.69 744.11 L 482.16 746.05 L 483.92 747.71 L 486.01 749.10 L 488.30 750.13 L 490.78 750.76 L 493.50 751.00 L 496.22 750.76 L 498.70 750.13 L 500.99 749.10 L 503.08 747.71 L 504.85 746.05 L 506.31 744.11 L 507.41 741.95 L 508.08 739.63 L 508.33 737.10 L 508.33 692.85 L 512.59 691.18 L 516.56 689.19 L 520.25 686.85 L 523.69 684.17 L 526.85 681.15 L 529.64 677.90 L 532.06 674.40 L 534.14 670.62 L 535.79 666.67 L 536.99 662.55 L 537.73 658.23 L 538.00 653.70 L 537.75 649.38 L 537.09 645.25 L 536.00 641.28 L 534.50 637.47 L 532.62 633.81 L 530.41 630.39 L 527.86 627.20 L 524.97 624.21 L 521.81 621.52 L 518.41 619.14 L 514.76 617.06 L 510.82 615.28 L 506.77 613.88 L 502.54 612.86 L 498.13 612.23 L 493.50 612.00 L 488.87 612.23 L 484.46 612.86 L 480.23 613.88 L 476.18 615.28 L 472.24 617.06 L 468.59 619.14 L 465.19 621.52 L 462.03 624.21 L 459.14 627.20 L 456.59 630.39 L 454.38 633.81 L 452.50 637.47 L 451.00 641.28 L 449.91 645.25 L 449.25 649.38 L 449.00 653.70 L 449.27 658.23 L 450.01 662.55 L 451.21 666.67 L 452.86 670.62 L 454.94 674.40 L 457.36 677.90 L 460.15 681.15 L 463.31 684.17 L 466.75 686.85 L 470.44 689.19 L 474.41 691.18 L 478.67 692.85 L 478.67 692.85 Z M 554.00 501.50 L 553.79 496.90 L 553.21 492.45 L 552.27 488.14 L 550.97 483.96 L 548.69 478.57 L 545.88 473.50 L 542.52 468.72 L 538.67 464.32 L 534.39 460.32 L 529.64 456.71 L 524.55 453.59 L 519.12 450.96 L 513.31 448.83 L 508.83 447.62 L 504.22 446.74 L 499.45 446.20 L 494.50 446.00 L 489.55 446.20 L 484.78 446.74 L 480.17 447.62 L 475.69 448.83 L 469.88 450.96 L 464.45 453.59 L 459.36 456.71 L 454.61 460.32 L 450.33 464.32 L 446.48 468.72 L 443.12 473.50 L 440.31 478.57 L 438.03 483.96 L 436.73 488.14 L 435.79 492.45 L 435.21 496.90 L 435.00 501.50 L 435.00 557.00 L 554.00 557.00 L 554.00 501.50 L 554.00 501.50 Z" fill="url(#linearGradient-3)" fill-rule="evenodd" group-id="2" id="形状" node-id="63" stroke-linecap="butt" stroke-width="1" target-height="417" target-width="356" target-x="316" target-y="390"></path>
    <path d="M 659.33 805.00 L 362.67 805.00 L 358.59 804.73 L 354.75 804.00 L 351.12 802.82 L 347.66 801.19 L 344.53 799.20 L 341.69 796.86 L 339.17 794.17 L 337.06 791.24 L 335.33 788.02 L 334.06 784.61 L 333.28 781.01 L 333.00 777.20 L 333.00 582.60 L 333.28 578.79 L 334.06 575.19 L 335.33 571.78 L 337.06 568.56 L 339.17 565.63 L 341.69 562.94 L 344.53 560.60 L 347.66 558.61 L 351.12 556.98 L 354.75 555.80 L 358.59 555.07 L 362.67 554.80 L 392.33 554.80 L 392.33 499.20 L 392.62 491.51 L 393.43 484.03 L 394.75 476.75 L 396.57 469.64 L 398.90 462.64 L 401.67 455.90 L 404.88 449.38 L 408.54 443.07 L 412.61 437.02 L 417.05 431.26 L 421.87 425.78 L 427.09 420.57 L 432.62 415.70 L 438.46 411.19 L 444.61 407.02 L 451.11 403.18 L 457.81 399.77 L 464.75 396.76 L 471.96 394.16 L 479.46 391.97 L 487.03 390.26 L 494.80 389.03 L 502.78 388.27 L 511.00 388.00 L 519.22 388.27 L 527.20 389.03 L 534.97 390.26 L 542.55 391.97 L 550.04 394.16 L 557.25 396.76 L 564.19 399.77 L 570.89 403.18 L 577.39 407.02 L 583.54 411.19 L 589.38 415.70 L 594.91 420.57 L 600.13 425.78 L 604.95 431.26 L 609.39 437.02 L 613.46 443.07 L 617.12 449.38 L 620.33 455.90 L 623.10 462.64 L 625.43 469.64 L 627.25 476.75 L 628.57 484.03 L 629.38 491.51 L 629.67 499.20 L 629.67 554.80 L 659.33 554.80 L 663.41 555.07 L 667.25 555.80 L 670.88 556.98 L 674.34 558.61 L 677.47 560.60 L 680.31 562.94 L 682.83 565.63 L 684.94 568.56 L 686.67 571.78 L 687.94 575.19 L 688.72 578.79 L 689.00 582.60 L 689.00 777.20 L 688.72 781.01 L 687.94 784.61 L 686.67 788.02 L 684.94 791.24 L 682.83 794.17 L 680.31 796.86 L 677.47 799.20 L 674.34 801.19 L 670.88 802.82 L 667.25 804.00 L 663.41 804.73 L 659.33 805.00 Z M 495.67 690.85 L 495.67 735.10 L 495.92 737.63 L 496.59 739.95 L 497.69 742.11 L 499.16 744.05 L 500.92 745.71 L 503.01 747.10 L 505.30 748.13 L 507.78 748.76 L 510.50 749.00 L 513.22 748.76 L 515.70 748.13 L 517.99 747.10 L 520.08 745.71 L 521.85 744.05 L 523.31 742.11 L 524.41 739.95 L 525.08 737.63 L 525.33 735.10 L 525.33 690.85 L 529.59 689.18 L 533.56 687.19 L 537.25 684.85 L 540.69 682.17 L 543.85 679.15 L 546.64 675.90 L 549.06 672.40 L 551.14 668.62 L 552.79 664.67 L 553.99 660.55 L 554.73 656.23 L 555.00 651.70 L 554.75 647.38 L 554.09 643.25 L 553.00 639.28 L 551.50 635.47 L 549.62 631.81 L 547.41 628.39 L 544.86 625.20 L 541.97 622.21 L 538.81 619.52 L 535.41 617.14 L 531.76 615.06 L 527.82 613.28 L 523.77 611.88 L 519.54 610.86 L 515.13 610.23 L 510.50 610.00 L 505.87 610.23 L 501.46 610.86 L 497.23 611.88 L 493.18 613.28 L 489.24 615.06 L 485.59 617.14 L 482.19 619.52 L 479.03 622.21 L 476.14 625.20 L 473.59 628.39 L 471.38 631.81 L 469.50 635.47 L 468.00 639.28 L 466.91 643.25 L 466.25 647.38 L 466.00 651.70 L 466.27 656.23 L 467.01 660.55 L 468.21 664.67 L 469.86 668.62 L 471.94 672.40 L 474.36 675.90 L 477.15 679.15 L 480.31 682.17 L 483.75 684.85 L 487.44 687.19 L 491.41 689.18 L 495.67 690.85 L 495.67 690.85 Z M 571.00 499.50 L 570.79 494.90 L 570.21 490.45 L 569.27 486.14 L 567.97 481.96 L 565.69 476.57 L 562.88 471.50 L 559.52 466.72 L 555.67 462.32 L 551.39 458.32 L 546.64 454.71 L 541.55 451.59 L 536.12 448.96 L 530.31 446.83 L 525.83 445.62 L 521.22 444.74 L 516.45 444.20 L 511.50 444.00 L 506.55 444.20 L 501.78 444.74 L 497.17 445.62 L 492.69 446.83 L 486.88 448.96 L 481.45 451.59 L 476.36 454.71 L 471.61 458.32 L 467.33 462.32 L 463.48 466.72 L 460.12 471.50 L 457.31 476.57 L 455.03 481.96 L 453.73 486.14 L 452.79 490.45 L 452.21 494.90 L 452.00 499.50 L 452.00 555.00 L 571.00 555.00 L 571.00 499.50 L 571.00 499.50 Z" fill="url(#linearGradient-4)" fill-rule="evenodd" group-id="2" id="形状备份" node-id="64" stroke-linecap="butt" stroke-width="1" target-height="417" target-width="356" target-x="333" target-y="388"></path>
    <path d="M 263.77 433.00 L 268.45 433.22 L 272.78 433.83 L 276.77 434.79 L 280.47 436.11 L 284.06 437.83 L 287.33 439.85 L 290.33 442.19 L 293.06 444.85 L 295.58 447.92 L 297.68 451.11 L 299.38 454.45 L 300.71 457.95 L 301.57 461.32 L 301.98 464.57 L 302.01 465.05 L 302.23 465.09 L 306.07 465.94 L 310.26 467.26 L 314.45 468.94 L 318.71 471.03 L 322.84 473.44 L 326.76 476.16 L 327.32 476.58 L 327.85 477.00 L 331.56 480.22 L 334.75 483.58 L 337.47 487.10 L 339.74 490.78 L 341.58 494.70 L 342.90 498.78 L 343.71 503.05 L 344.00 507.54 L 343.70 512.66 L 342.89 517.44 L 341.56 521.94 L 339.74 526.19 L 337.46 530.22 L 334.72 534.11 L 331.49 537.88 L 327.75 541.53 L 324.41 544.38 L 320.67 547.24 L 319.54 548.06 L 314.97 551.27 L 314.06 551.93 L 311.51 553.60 L 310.81 554.00 L 310.01 554.45 L 306.52 556.35 L 305.69 556.81 L 305.28 557.04 L 304.69 557.39 L 304.29 557.63 L 303.74 557.96 L 303.22 558.29 L 302.97 558.45 L 302.49 558.78 L 302.25 558.94 L 301.80 559.27 L 301.37 559.59 L 299.67 561.09 L 298.54 562.52 L 297.89 563.92 L 297.63 565.30 L 297.75 566.69 L 298.29 568.29 L 299.35 570.15 L 301.08 572.33 L 301.52 572.82 L 301.75 573.07 L 303.42 574.89 L 304.03 575.59 L 306.68 579.09 L 308.11 581.73 L 308.65 583.71 L 308.62 585.12 L 308.21 586.25 L 307.44 587.18 L 306.39 587.86 L 304.94 588.39 L 302.98 588.72 L 302.69 588.74 L 291.24 588.74 L 291.24 789.31 L 279.83 800.00 L 258.24 800.00 L 238.40 771.68 L 238.40 759.13 L 253.60 750.30 L 253.60 732.53 L 242.36 721.85 L 242.36 697.12 L 251.03 681.46 L 251.03 643.71 L 238.40 632.89 L 238.40 588.74 L 228.67 588.74 L 226.08 588.62 L 224.12 588.27 L 222.66 587.75 L 221.43 586.93 L 220.68 585.91 L 220.34 584.64 L 220.33 584.45 L 220.32 584.25 L 220.53 582.84 L 221.24 581.09 L 222.62 578.91 L 224.89 576.17 L 225.44 575.57 L 226.33 574.65 L 226.96 574.02 L 227.96 573.05 L 229.94 570.73 L 231.14 568.61 L 231.71 566.65 L 231.75 564.76 L 231.28 562.94 L 230.23 561.04 L 228.48 559.00 L 225.83 556.80 L 225.25 556.39 L 223.33 555.15 L 222.64 554.74 L 222.28 554.53 L 221.55 554.12 L 220.40 553.50 L 219.59 553.09 L 218.76 552.67 L 217.90 552.26 L 217.46 552.05 L 213.65 550.25 L 209.84 548.09 L 206.01 545.54 L 202.38 542.73 L 199.02 539.68 L 195.93 536.39 L 193.34 533.14 L 191.17 529.82 L 189.38 526.43 L 187.95 522.96 L 186.89 519.36 L 186.25 515.68 L 186.01 511.89 L 186.18 507.98 L 186.24 507.44 L 187.11 502.04 L 188.51 497.06 L 190.40 492.43 L 192.81 488.12 L 195.74 484.09 L 199.22 480.33 L 203.29 476.83 L 208.03 473.57 L 213.48 470.57 L 219.73 467.83 L 226.86 465.40 L 227.85 465.11 L 227.88 465.01 L 229.83 458.99 L 232.03 453.80 L 234.47 449.32 L 237.13 445.50 L 240.01 442.26 L 243.11 439.55 L 246.44 437.32 L 250.02 435.56 L 253.90 434.25 L 258.11 433.39 L 262.70 433.01 L 263.23 433.00 L 263.77 433.00 Z M 263.77 435.00 L 259.28 435.24 L 255.17 435.97 L 251.39 437.15 L 247.90 438.79 L 244.66 440.88 L 241.65 443.46 L 238.84 446.56 L 236.25 450.25 L 233.86 454.59 L 231.71 459.66 L 229.81 465.55 L 229.49 466.72 L 228.94 466.88 L 221.77 469.20 L 215.50 471.81 L 210.04 474.69 L 205.32 477.81 L 201.25 481.17 L 197.78 484.77 L 194.86 488.62 L 192.47 492.74 L 190.58 497.16 L 189.18 501.92 L 188.30 507.06 L 188.23 507.66 L 188.01 511.43 L 188.19 515.08 L 188.78 518.63 L 189.77 522.11 L 191.13 525.45 L 192.84 528.72 L 194.94 531.93 L 197.44 535.09 L 200.43 538.26 L 203.67 541.20 L 207.19 543.92 L 210.89 546.39 L 214.58 548.48 L 218.27 550.22 L 223.66 553.05 L 227.61 555.70 L 230.40 558.18 L 232.24 560.52 L 233.34 562.74 L 233.81 564.92 L 233.70 567.10 L 233.00 569.38 L 231.61 571.82 L 229.36 574.48 L 229.04 574.79 L 228.41 575.40 L 227.82 575.99 L 227.53 576.29 L 226.98 576.86 L 226.46 577.41 L 225.98 577.96 L 225.52 578.48 L 223.52 581.15 L 222.58 582.99 L 222.32 584.25 L 222.46 584.94 L 222.91 585.53 L 223.76 586.06 L 225.44 586.52 L 228.34 586.74 L 228.67 586.74 L 240.40 586.74 L 240.40 631.98 L 253.03 642.79 L 253.03 681.98 L 244.36 697.63 L 244.36 720.99 L 255.60 731.67 L 255.60 751.45 L 240.40 760.28 L 240.40 771.05 L 259.28 798.00 L 279.04 798.00 L 289.24 788.44 L 289.24 586.74 L 302.61 586.75 L 304.72 586.40 L 305.87 585.87 L 306.55 585.05 L 306.67 583.94 L 306.21 582.36 L 304.93 580.07 L 302.42 576.79 L 301.86 576.15 L 300.95 575.14 L 300.30 574.44 L 299.36 573.41 L 298.94 572.90 L 297.29 570.63 L 296.26 568.63 L 295.73 566.85 L 295.61 565.24 L 295.87 563.63 L 296.51 562.05 L 297.58 560.46 L 299.16 558.85 L 299.56 558.50 L 299.77 558.32 L 300.21 557.97 L 300.67 557.63 L 300.91 557.45 L 301.39 557.11 L 301.65 556.94 L 302.16 556.59 L 302.70 556.25 L 303.26 555.91 L 303.67 555.67 L 304.29 555.31 L 304.71 555.07 L 306.74 553.96 L 308.59 552.95 L 309.46 552.47 L 310.16 552.07 L 310.79 551.70 L 311.38 551.34 L 312.64 550.49 L 313.41 549.93 L 318.79 546.14 L 322.80 543.11 L 326.41 540.05 L 330.01 536.54 L 333.11 532.92 L 335.74 529.19 L 337.92 525.34 L 339.67 521.28 L 340.94 516.98 L 341.72 512.42 L 342.00 507.54 L 341.72 503.30 L 340.96 499.26 L 339.70 495.40 L 337.96 491.68 L 335.80 488.19 L 333.21 484.85 L 330.15 481.64 L 326.61 478.57 L 322.61 475.68 L 318.37 473.12 L 313.97 470.92 L 309.64 469.16 L 305.31 467.80 L 301.41 466.98 L 300.89 466.91 L 300.02 466.79 L 300.02 465.91 L 299.78 462.75 L 299.07 459.42 L 297.83 455.89 L 296.18 452.53 L 294.11 449.31 L 291.59 446.21 L 289.01 443.69 L 286.17 441.48 L 283.07 439.57 L 279.67 437.94 L 276.16 436.70 L 272.36 435.78 L 268.24 435.21 L 263.77 435.00 Z M 266.00 455.00 L 269.19 455.22 L 272.17 455.80 L 274.96 456.73 L 277.60 458.00 L 280.08 459.61 L 282.27 461.45 L 284.19 463.54 L 285.86 465.89 L 287.20 468.43 L 288.17 471.11 L 288.77 473.96 L 289.00 477.00 L 288.77 480.04 L 288.17 482.89 L 287.20 485.57 L 285.86 488.11 L 284.19 490.46 L 282.27 492.55 L 280.08 494.39 L 277.60 496.00 L 274.96 497.27 L 272.17 498.20 L 269.19 498.78 L 266.00 499.00 L 262.81 498.78 L 259.83 498.20 L 257.04 497.27 L 254.40 496.00 L 251.92 494.39 L 249.73 492.55 L 247.81 490.46 L 246.14 488.11 L 244.80 485.57 L 243.83 482.89 L 243.23 480.04 L 243.00 477.00 L 243.23 473.96 L 243.83 471.11 L 244.80 468.43 L 246.14 465.89 L 247.81 463.54 L 249.73 461.45 L 251.92 459.61 L 254.40 458.00 L 257.04 456.73 L 259.83 455.80 L 262.81 455.22 L 266.00 455.00 Z M 266.00 457.00 L 262.16 457.34 L 258.64 458.26 L 255.40 459.73 L 252.44 461.73 L 249.94 464.11 L 247.86 466.91 L 246.64 469.22 L 245.76 471.65 L 245.21 474.24 L 245.00 477.00 L 245.21 479.76 L 245.76 482.35 L 246.64 484.78 L 247.86 487.09 L 249.94 489.89 L 252.44 492.27 L 255.40 494.27 L 258.64 495.74 L 262.16 496.66 L 266.00 497.00 L 269.84 496.66 L 273.36 495.74 L 276.60 494.27 L 279.56 492.27 L 282.06 489.89 L 284.14 487.09 L 285.36 484.78 L 286.24 482.35 L 286.79 479.76 L 287.00 477.00 L 286.79 474.24 L 286.24 471.65 L 285.36 469.22 L 284.14 466.91 L 282.06 464.11 L 279.56 461.73 L 276.60 459.73 L 273.36 458.26 L 269.84 457.34 L 266.00 457.00 Z" fill="url(#linearGradient-5)" fill-rule="nonzero" group-id="3" id="形状结合" node-id="66" stroke-linecap="butt" stroke-width="1" target-height="367" target-width="157.99437" target-x="186.00563" target-y="433"></path>
    <path d="M 275.77 434.00 L 281.03 434.29 L 285.69 435.03 L 289.81 436.19 L 293.78 437.80 L 297.27 439.69 L 300.32 441.84 L 303.12 444.31 L 305.52 446.89 L 307.53 449.58 L 309.28 452.47 L 310.66 455.29 L 311.69 458.06 L 312.46 460.93 L 312.89 463.54 L 313.02 465.91 L 317.39 466.80 L 322.73 468.50 L 328.13 470.83 L 333.81 473.97 L 337.45 476.42 L 340.92 479.19 L 344.23 482.31 L 347.22 485.72 L 349.79 489.44 L 351.97 493.50 L 353.25 496.69 L 354.18 500.08 L 354.77 503.68 L 355.00 507.54 L 354.69 512.65 L 353.89 517.26 L 352.63 521.45 L 350.92 525.48 L 348.95 529.13 L 346.71 532.44 L 342.92 537.00 L 339.02 540.85 L 334.96 544.26 L 331.34 546.97 L 325.46 551.13 L 321.90 553.37 L 317.79 555.61 L 317.20 555.94 L 314.66 557.46 L 312.42 559.07 L 310.52 560.89 L 309.26 562.85 L 308.80 564.27 L 308.71 565.85 L 309.04 567.63 L 309.73 569.33 L 311.01 571.34 L 313.02 573.75 L 316.57 577.86 L 318.58 580.85 L 319.50 583.01 L 319.68 584.57 L 319.35 585.73 L 318.53 586.63 L 317.08 587.32 L 314.69 587.74 L 302.24 587.74 L 302.24 788.87 L 291.43 799.00 L 270.76 799.00 L 251.40 771.36 L 251.40 759.70 L 266.60 750.87 L 266.60 732.10 L 255.36 721.42 L 255.36 697.37 L 264.03 681.72 L 264.03 643.25 L 251.40 632.43 L 251.40 587.74 L 240.67 587.74 L 237.44 587.52 L 235.39 586.98 L 234.17 586.22 L 233.52 585.30 L 233.33 584.14 L 233.66 582.61 L 234.74 580.51 L 236.93 577.63 L 240.67 573.75 L 242.86 571.18 L 244.16 568.81 L 244.75 566.59 L 244.72 564.43 L 244.06 562.25 L 242.94 560.34 L 241.15 558.30 L 238.51 556.10 L 234.83 553.71 L 229.85 551.13 L 225.89 549.24 L 221.43 546.65 L 217.07 543.59 L 212.71 539.91 L 209.99 537.20 L 207.46 534.25 L 205.13 531.06 L 203.11 527.67 L 201.45 524.07 L 200.16 520.22 L 199.33 516.26 L 199.01 512.05 L 199.24 507.54 L 200.10 502.18 L 201.50 497.23 L 203.41 492.63 L 205.84 488.36 L 208.81 484.37 L 212.34 480.64 L 216.50 477.17 L 221.33 473.95 L 226.91 470.98 L 233.33 468.30 L 240.67 465.91 L 242.60 459.77 L 244.81 454.48 L 247.26 449.95 L 249.93 446.11 L 252.82 442.87 L 255.94 440.17 L 259.29 437.98 L 262.91 436.27 L 266.83 435.03 L 271.10 434.26 L 275.77 434.00 Z M 278.00 456.00 L 274.95 456.21 L 272.10 456.76 L 269.42 457.65 L 266.90 458.87 L 263.80 460.96 L 261.18 463.46 L 259.00 466.40 L 257.72 468.83 L 256.80 471.38 L 256.22 474.10 L 256.00 477.00 L 256.22 479.90 L 256.80 482.62 L 257.72 485.17 L 259.00 487.60 L 261.18 490.54 L 263.80 493.04 L 266.90 495.13 L 269.42 496.35 L 272.10 497.24 L 274.95 497.79 L 278.00 498.00 L 281.05 497.79 L 283.90 497.24 L 286.58 496.35 L 289.10 495.13 L 292.20 493.04 L 294.82 490.54 L 297.00 487.60 L 298.28 485.17 L 299.20 482.62 L 299.78 479.90 L 300.00 477.00 L 299.78 474.10 L 299.20 471.38 L 298.28 468.83 L 297.00 466.40 L 294.82 463.46 L 292.20 460.96 L 289.10 458.87 L 286.58 457.65 L 283.90 456.76 L 281.05 456.21 L 278.00 456.00 Z" fill="url(#linearGradient-6)" fill-rule="evenodd" group-id="3" id="形状结合备份" node-id="67" stroke-linecap="butt" stroke-width="1" target-height="365" target-width="155.98752" target-x="199.01248" target-y="434"></path>
    <path d="M 184.89 891.11 L 182.38 877.89 L 179.50 865.78 L 176.30 854.70 L 172.79 844.57 L 169.00 835.35 L 164.94 826.95 L 160.64 819.33 L 156.09 812.43 L 151.31 806.20 L 146.30 800.60 L 141.06 795.59 L 135.57 791.14 L 129.83 787.21 L 123.82 783.80 L 117.52 780.89 L 110.96 777.90 L 105.18 774.76 L 100.10 771.49 L 95.67 768.10 L 91.41 764.24 L 87.85 760.41 L 84.93 756.61 L 82.59 752.82 L 80.63 748.70 L 79.29 744.76 L 78.51 740.96 L 78.26 737.27 L 78.55 733.55 L 79.37 730.07 L 80.74 726.78 L 82.66 723.65 L 85.01 720.89 L 87.93 718.40 L 91.47 716.15 L 95.75 714.17 L 100.07 712.77 L 105.08 711.74 L 110.86 711.14 L 117.52 711.04 L 125.85 711.72 L 133.53 712.89 L 140.61 714.53 L 147.14 716.59 L 153.16 719.07 L 158.72 721.96 L 163.85 725.24 L 168.59 728.93 L 172.95 733.05 L 176.95 737.61 L 180.61 742.64 L 183.92 748.17 L 186.88 754.25 L 189.49 760.92 L 191.71 768.24 L 193.54 776.26 L 194.93 785.05 L 195.84 794.65 L 196.25 805.16 L 196.09 816.62 L 195.32 829.13 L 193.87 842.75 L 191.70 857.56 L 188.72 873.65 L 184.89 891.11 Z" fill="url(#linearGradient-7)" fill-rule="evenodd" group-id="4" id="路径-82" node-id="69" stroke-linecap="butt" stroke-width="1" target-height="180.07013" target-width="117.98479" target-x="78.26323" target-y="711.03516"></path>
    <path d="M 185.91 891.11 L 187.48 883.18 L 189.50 875.61 L 191.95 868.38 L 194.83 861.46 L 198.15 854.84 L 201.90 848.49 L 206.10 842.41 L 210.76 836.58 L 215.88 830.98 L 221.51 825.62 L 226.48 821.44 L 230.42 818.55 L 233.51 816.68 L 236.80 815.19 L 239.23 814.57 L 241.02 814.55 L 242.69 815.06 L 243.96 816.00 L 244.89 817.41 L 245.49 819.07 L 245.85 821.05 L 245.95 823.40 L 245.68 826.96 L 245.02 830.69 L 244.06 834.32 L 242.96 837.43 L 241.31 842.75 L 239.08 847.94 L 236.26 853.02 L 232.81 858.00 L 228.68 862.92 L 223.82 867.77 L 218.16 872.57 L 211.62 877.31 L 204.13 881.98 L 195.59 886.59 L 185.91 891.11 Z" fill="url(#linearGradient-8)" fill-rule="evenodd" group-id="4" id="路径-83" node-id="70" stroke-linecap="butt" stroke-width="1" target-height="76.552" target-width="60.033722" target-x="185.91228" target-y="814.5533"></path>
    <path d="M 183.84 891.11 L 182.27 883.18 L 180.26 875.61 L 177.80 868.38 L 174.92 861.46 L 171.60 854.84 L 167.85 848.49 L 163.65 842.41 L 159.00 836.58 L 153.87 830.98 L 148.25 825.62 L 143.28 821.44 L 139.34 818.55 L 136.25 816.68 L 132.95 815.19 L 130.52 814.57 L 128.73 814.55 L 127.06 815.06 L 125.80 816.00 L 124.86 817.41 L 124.27 819.07 L 123.90 821.05 L 123.81 823.40 L 124.07 826.96 L 124.73 830.69 L 125.70 834.32 L 126.80 837.43 L 128.45 842.75 L 130.67 847.94 L 133.49 853.02 L 136.94 858.00 L 141.07 862.92 L 145.94 867.77 L 151.60 872.57 L 158.13 877.31 L 165.63 881.98 L 174.16 886.59 L 183.84 891.11 Z" fill="url(#linearGradient-8)" fill-rule="evenodd" group-id="4" id="路径-83备份" node-id="71" stroke-linecap="butt" stroke-width="1" target-height="76.552" target-width="60.033722" target-x="123.80838" target-y="814.5533"></path>
    <path d="M 41.00 913.70 L 57.86 910.35 L 69.58 907.58 L 77.33 905.31 L 82.11 903.48 L 84.80 902.03 L 86.11 900.88 L 87.57 899.45 L 90.74 897.08 L 94.52 894.71 L 99.55 892.02 L 105.02 889.57 L 111.24 887.35 L 115.54 886.16 L 119.96 885.27 L 124.51 884.70 L 129.07 884.55 L 133.57 884.89 L 138.05 885.73 L 141.29 886.72 L 144.45 888.09 L 147.53 889.86 L 150.56 892.05 L 151.98 890.54 L 153.82 889.11 L 156.14 887.74 L 158.61 886.68 L 161.29 885.88 L 164.20 885.38 L 167.14 885.25 L 170.08 885.57 L 173.05 886.34 L 175.82 887.60 L 178.46 889.48 L 180.99 892.05 L 182.13 888.55 L 183.76 885.24 L 185.89 882.09 L 188.40 879.19 L 191.20 876.50 L 194.33 874.01 L 199.34 870.77 L 204.53 868.15 L 209.83 866.12 L 214.70 864.84 L 217.97 864.34 L 220.74 864.22 L 223.08 864.41 L 226.59 864.22 L 231.36 864.25 L 236.43 864.66 L 242.17 865.66 L 245.99 866.68 L 249.87 868.11 L 253.82 869.98 L 257.54 872.23 L 261.13 875.07 L 264.63 878.53 L 266.92 881.35 L 269.07 884.62 L 271.07 888.37 L 272.91 892.66 L 274.33 896.94 L 275.51 901.82 L 276.41 907.38 L 277.00 913.70 L 240.04 913.86 L 41.00 913.70 Z" fill="url(#linearGradient-9)" fill-rule="evenodd" group-id="4" id="路径-47" node-id="72" stroke-linecap="butt" stroke-width="1" target-height="49.64563" target-width="236" target-x="41" target-y="864.2165"></path>
    <path d="M 843.00 910.00 L 842.76 911.89 L 842.08 913.76 L 840.91 915.65 L 839.15 917.59 L 836.48 919.77 L 832.96 921.97 L 828.43 924.17 L 823.77 926.00 L 818.35 927.74 L 812.09 929.37 L 805.79 930.69 L 798.89 931.83 L 791.36 932.78 L 783.82 933.44 L 775.88 933.85 L 767.50 934.00 L 759.12 933.85 L 751.18 933.44 L 743.64 932.78 L 736.11 931.83 L 729.21 930.69 L 722.91 929.37 L 716.65 927.74 L 711.23 926.00 L 706.57 924.17 L 702.04 921.97 L 698.52 919.77 L 695.85 917.59 L 694.09 915.65 L 692.92 913.76 L 692.24 911.89 L 692.00 910.00 L 692.24 908.11 L 692.92 906.24 L 694.09 904.35 L 695.85 902.41 L 698.52 900.23 L 702.04 898.03 L 706.57 895.83 L 711.23 894.00 L 716.65 892.26 L 722.91 890.63 L 729.21 889.31 L 736.11 888.17 L 743.64 887.22 L 751.18 886.56 L 759.12 886.15 L 767.50 886.00 L 775.88 886.15 L 783.82 886.56 L 791.36 887.22 L 798.89 888.17 L 805.79 889.31 L 812.09 890.63 L 818.35 892.26 L 823.77 894.00 L 828.43 895.83 L 832.96 898.03 L 836.48 900.23 L 839.15 902.41 L 840.91 904.35 L 842.08 906.24 L 842.76 908.11 L 843.00 910.00 Z" fill="#fee3b1" fill-rule="evenodd" group-id="5" id="椭圆形" node-id="74" stroke-linecap="butt" stroke-width="1" target-height="48" target-width="151" target-x="692" target-y="886"></path>
    <path d="M 748.00 626.00 L 772.00 626.00 L 772.00 650.00 L 748.00 650.00 Z" fill="url(#linearGradient-10)" fill-rule="evenodd" group-id="5" id="矩形" node-id="75" stroke-linecap="butt" stroke-width="1" target-height="24" target-width="24" target-x="748" target-y="626"></path>
    <path d="M 745.26 891.94 L 743.99 899.95 L 740.23 900.28 L 736.21 901.09 L 731.87 902.43 L 727.19 904.35 L 725.43 905.54 L 724.40 906.42 L 723.66 907.32 L 723.28 908.12 L 723.00 909.96 L 723.27 910.31 L 724.72 910.70 L 728.97 910.98 L 738.37 910.86 L 756.00 909.96 L 756.00 889.00 L 745.26 891.94 Z" fill="#333333" fill-rule="nonzero" group-id="5" id="路径-52" node-id="76" stroke-linecap="butt" stroke-width="1" target-height="21.978027" target-width="32.99951" target-x="723.0005" target-y="889"></path>
    <path d="M 790.74 891.94 L 792.01 899.95 L 795.77 900.28 L 799.79 901.09 L 804.13 902.43 L 808.81 904.35 L 810.57 905.54 L 811.60 906.42 L 812.34 907.32 L 812.72 908.12 L 813.00 909.96 L 812.73 910.31 L 811.28 910.70 L 807.03 910.98 L 797.63 910.86 L 780.00 909.96 L 780.00 889.00 L 790.74 891.94 Z" fill="#333333" fill-rule="nonzero" group-id="5" id="路径-52备份" node-id="77" stroke-linecap="butt" stroke-width="1" target-height="21.978027" target-width="32.99951" target-x="780" target-y="889"></path>
    <path d="M 733.00 743.00 L 741.71 895.00 L 758.79 894.76 L 766.16 754.46 L 777.65 894.70 L 793.71 894.44 L 798.00 743.33 Z" fill="url(#linearGradient-11)" fill-rule="nonzero" group-id="5" id="路径-49" node-id="78" stroke-linecap="butt" stroke-width="1" target-height="152" target-width="65" target-x="733" target-y="743"></path>
    <path d="M 829.00 679.36 L 830.76 678.21 L 832.49 677.52 L 834.20 677.23 L 835.95 677.33 L 837.51 677.18 L 838.35 676.76 L 838.75 676.14 L 840.88 676.02 L 841.86 676.33 L 842.23 676.86 L 842.11 677.75 L 841.40 679.05 L 840.74 679.48 L 840.00 679.36 L 843.86 681.10 L 847.52 678.55 L 850.29 678.84 L 851.89 679.47 L 852.72 680.34 L 853.00 681.47 L 852.68 683.06 L 851.51 684.58 L 849.74 686.11 L 848.37 686.94 L 846.80 687.55 L 844.98 687.94 L 843.14 687.99 L 841.08 687.63 L 838.75 686.79 L 837.18 685.81 L 835.84 685.34 L 834.66 685.26 L 829.00 679.36 Z" fill="#fee0bc" fill-rule="evenodd" group-id="5" id="路径-50" node-id="79" stroke-linecap="butt" stroke-width="1" target-height="11.963318" target-width="23.999878" target-x="829" target-y="676.02466"></path>
    <path d="M 696.64 690.09 L 695.35 688.40 L 693.94 687.17 L 692.41 686.33 L 690.72 685.85 L 689.29 685.21 L 688.63 684.53 L 688.46 683.79 L 686.48 682.98 L 685.45 682.95 L 684.92 683.35 L 684.74 684.24 L 684.98 685.73 L 685.47 686.36 L 686.20 686.49 L 681.97 686.91 L 679.34 683.25 L 676.62 682.62 L 674.90 682.70 L 673.82 683.26 L 673.17 684.26 L 672.95 685.90 L 673.55 687.75 L 674.72 689.80 L 675.75 691.05 L 677.04 692.16 L 678.64 693.12 L 680.37 693.78 L 682.44 694.10 L 684.93 694.06 L 686.74 693.63 L 688.18 693.61 L 689.32 693.92 L 696.64 690.09 Z" fill="#fee0bc" fill-rule="evenodd" group-id="5" id="路径-50备份" node-id="80" stroke-linecap="butt" stroke-width="1" target-height="11.488098" target-width="23.697937" target-x="672.9464" target-y="682.6157"></path>
    <path d="M 746.56 637.59 L 761.55 647.51 L 772.41 637.00 L 805.09 649.26 L 812.93 691.01 L 828.56 677.89 L 839.00 687.49 L 814.79 724.01 L 811.78 726.86 L 809.28 728.56 L 807.18 729.40 L 805.37 729.58 L 803.75 729.20 L 802.22 728.25 L 800.73 726.60 L 799.27 724.01 L 797.69 713.89 L 792.73 679.66 L 799.68 745.29 L 730.91 746.00 L 735.71 679.68 L 735.10 691.56 L 734.16 700.88 L 732.98 708.05 L 731.64 713.44 L 730.20 717.39 L 728.70 720.17 L 727.19 722.06 L 725.66 723.24 L 724.09 723.87 L 722.40 724.01 L 719.53 722.89 L 715.15 720.40 L 708.69 715.92 L 699.55 708.71 L 687.00 697.94 L 691.54 685.69 L 713.04 697.04 L 717.52 656.29 L 746.56 637.59 Z" fill="url(#linearGradient-12)" fill-rule="nonzero" group-id="5" id="路径-48" node-id="81" stroke-linecap="butt" stroke-width="1" target-height="109" target-width="152" target-x="687" target-y="637"></path>
    <path d="M 788.00 606.00 L 787.73 609.57 L 787.00 612.93 L 785.80 616.12 L 784.17 619.13 L 782.18 621.87 L 779.80 624.38 L 777.12 626.58 L 774.16 628.43 L 770.90 629.96 L 767.47 631.07 L 763.85 631.75 L 760.00 632.00 L 756.15 631.75 L 752.53 631.07 L 749.10 629.96 L 745.84 628.43 L 742.88 626.58 L 740.20 624.38 L 737.82 621.87 L 735.83 619.13 L 734.20 616.12 L 733.00 612.93 L 732.27 609.57 L 732.00 606.00 L 732.27 602.43 L 733.00 599.07 L 734.20 595.88 L 735.83 592.87 L 737.82 590.13 L 740.20 587.62 L 742.88 585.42 L 745.84 583.57 L 749.10 582.04 L 752.53 580.93 L 756.15 580.25 L 760.00 580.00 L 763.85 580.25 L 767.47 580.93 L 770.90 582.04 L 774.16 583.57 L 777.12 585.42 L 779.80 587.62 L 782.18 590.13 L 784.17 592.87 L 785.80 595.88 L 787.00 599.07 L 787.73 602.43 L 788.00 606.00 Z" fill="url(#linearGradient-13)" fill-rule="evenodd" group-id="5,6" id="椭圆形" node-id="83" stroke-linecap="butt" stroke-width="1" target-height="52" target-width="56" target-x="732" target-y="580"></path>
    <path d="M 794.00 607.50 L 793.80 609.29 L 793.31 610.81 L 792.54 612.10 L 791.49 613.14 L 790.33 613.76 L 789.00 614.00 L 787.67 613.76 L 786.51 613.14 L 785.46 612.10 L 784.69 610.81 L 784.20 609.29 L 784.00 607.50 L 784.20 605.71 L 784.69 604.19 L 785.46 602.90 L 786.51 601.86 L 787.67 601.24 L 789.00 601.00 L 790.33 601.24 L 791.49 601.86 L 792.54 602.90 L 793.31 604.19 L 793.80 605.71 L 794.00 607.50 Z" fill="url(#linearGradient-14)" fill-rule="evenodd" group-id="5,6" id="椭圆形" node-id="84" stroke-linecap="butt" stroke-width="1" target-height="13" target-width="10" target-x="784" target-y="601"></path>
    <path d="M 735.58 610.45 L 735.64 612.25 L 735.37 613.82 L 734.80 615.20 L 733.93 616.38 L 732.90 617.16 L 731.65 617.57 L 730.33 617.52 L 729.12 617.06 L 727.96 616.16 L 727.04 614.99 L 726.35 613.56 L 725.91 611.81 L 725.85 610.00 L 726.11 608.43 L 726.68 607.05 L 727.55 605.87 L 728.59 605.10 L 729.84 604.68 L 731.15 604.74 L 732.36 605.19 L 733.52 606.09 L 734.45 607.26 L 735.14 608.69 L 735.58 610.45 Z" fill="url(#linearGradient-15)" fill-rule="evenodd" group-id="5,6" id="椭圆形备份" node-id="85" stroke-linecap="butt" stroke-width="0.99999994" target-height="12.892029" target-width="9.78894" target-x="725.8478" target-y="604.6797"></path>
    <path d="M 734.90 611.00 L 732.86 609.70 L 731.00 607.92 L 729.33 605.59 L 727.83 602.61 L 726.55 598.87 L 726.10 595.15 L 726.00 591.59 L 726.25 588.15 L 727.14 583.13 L 728.50 578.71 L 730.28 574.65 L 732.14 571.51 L 733.59 569.63 L 734.88 568.34 L 736.03 567.51 L 739.50 565.59 L 741.98 564.49 L 743.56 564.11 L 744.95 564.17 L 746.22 564.64 L 747.26 563.48 L 749.31 562.03 L 751.82 560.82 L 755.30 559.74 L 757.78 559.28 L 760.63 559.04 L 763.93 559.05 L 767.20 559.37 L 770.85 560.09 L 774.94 561.25 L 778.84 562.88 L 782.17 564.82 L 785.00 567.04 L 787.53 569.62 L 789.62 572.30 L 791.31 575.10 L 792.70 578.07 L 793.73 580.92 L 794.43 583.67 L 794.97 587.75 L 794.90 591.01 L 794.18 594.94 L 792.85 599.09 L 790.81 603.50 L 787.98 608.22 L 787.98 600.05 L 786.80 604.26 L 785.59 606.81 L 784.40 608.22 L 784.80 605.73 L 784.98 603.25 L 784.89 600.91 L 784.54 599.34 L 784.21 598.89 L 783.98 599.20 L 783.51 601.33 L 782.75 604.27 L 780.13 601.12 L 777.23 598.38 L 774.04 596.03 L 770.52 594.05 L 766.66 592.44 L 765.93 594.09 L 757.41 585.89 L 754.14 583.13 L 752.48 582.20 L 751.32 581.93 L 750.46 582.12 L 749.79 582.72 L 749.27 583.87 L 748.08 583.15 L 747.32 582.91 L 746.54 582.96 L 745.87 583.41 L 745.18 584.63 L 743.28 589.01 L 742.33 591.68 L 741.37 595.16 L 740.63 598.99 L 740.03 603.99 L 739.37 603.12 L 738.89 602.85 L 738.50 602.91 L 738.00 603.48 L 737.58 604.89 L 737.43 606.58 L 737.54 608.79 L 735.49 608.16 L 734.90 611.00 Z" fill="#000000" fill-rule="evenodd" group-id="5,6" id="路径-67" node-id="86" stroke-linecap="butt" stroke-width="1" target-height="51.962585" target-width="68.9613" target-x="726.0045" target-y="559.0374"></path>
    <path d="M 282.50 306.00 L 282.50 305.90 C 277.16 290.61 259.76 283.42 245.00 285.64 C 255.95 278.73 274.01 276.89 282.50 287.48 L 282.50 287.58 C 290.97 277.08 309.14 278.83 320.00 285.73 C 305.25 283.61 287.85 290.80 282.50 305.99 L 282.50 306.00 Z M 366.00 294.00 L 366.00 293.94 C 362.29 283.35 350.24 278.38 340.00 279.90 C 347.59 275.12 360.12 273.85 366.00 281.18 L 366.00 281.25 C 371.88 273.98 384.47 275.19 392.00 279.97 C 381.76 278.50 369.71 283.48 366.00 294.00 L 366.00 294.00 Z M 331.00 259.00 L 331.00 258.94 C 327.29 248.35 315.24 243.38 305.00 244.90 C 312.59 240.12 325.12 238.85 331.00 246.18 L 331.00 246.25 C 336.88 238.98 349.47 240.19 357.00 244.97 C 346.76 243.50 334.71 248.48 331.00 259.00 L 331.00 259.00 Z M 437.00 299.00 L 437.00 298.96 C 434.44 291.90 426.08 288.58 419.00 289.60 C 424.25 286.42 432.93 285.56 437.00 290.45 L 437.00 290.50 C 441.08 285.65 449.79 286.46 455.00 289.65 C 447.92 288.66 439.56 291.99 437.00 299.00 Z" fill="url(#linearGradient-16)" fill-rule="evenodd" id="大雁" node-id="87" stroke="none" target-height="65" target-width="210" target-x="245" target-y="241"></path>
</svg>
