<?xml version="1.0" standalone="no"?><!DOCTYPE svg PUBLIC "-//W3C//DTD SVG 1.1//EN" "http://www.w3.org/Graphics/SVG/1.1/DTD/svg11.dtd"><svg t="1705573638556" class="icon" viewBox="0 0 1024 1024" version="1.1" xmlns="http://www.w3.org/2000/svg" p-id="26023" xmlns:xlink="http://www.w3.org/1999/xlink" width="48" height="48"><path d="M713.7 550.2c20.9 0 37.9 17 37.9 37.9v113.6c0 20.9-17 37.9-37.9 37.9s-37.9-17-37.9-37.9V588.1c0-21 17-37.9 37.9-37.9zM524.3 266.1c20.9 0 37.9 17 37.9 37.9v397.7c0 20.9-17 37.9-37.9 37.9s-37.9-17-37.9-37.9V304c0-20.9 17-37.9 37.9-37.9zM334.9 392.4c20.9 0 37.9 17 37.9 37.9v271.5c0 20.9-17 37.9-37.9 37.9s-37.9-17-37.9-37.9V430.2c0-20.9 17-37.8 37.9-37.8z m177.5 547.9c-230.3 0-427.8-197.5-427.8-427.8S282.1 84.8 512.4 84.8s427.8 197.5 427.8 427.8c-0.5 229.8-198 427.7-427.8 427.7z m0.5-926.7c-276.3 0-500 223.7-500 500s223.7 500 500 500 500-223.7 500-500-223.7-500-500-500z" p-id="26024"></path></svg>