<?xml version="1.0" standalone="no"?><!DOCTYPE svg PUBLIC "-//W3C//DTD SVG 1.1//EN" "http://www.w3.org/Graphics/SVG/1.1/DTD/svg11.dtd"><svg t="1705571846884" class="icon" viewBox="0 0 1024 1024" version="1.1" xmlns="http://www.w3.org/2000/svg" p-id="11731" xmlns:xlink="http://www.w3.org/1999/xlink" width="48" height="48"><path d="M512 97C282.8 97 97 282.8 97 512s185.8 415 415 415 415-185.8 415-415S741.2 97 512 97z m-1 759c-190.5 0-345-154.5-345-345s154.5-345 345-345 345 154.5 345 345-154.5 345-345 345z" p-id="11732"></path><path d="M442.1 408.2L621.9 512 442.1 615.8V408.2m-59.9-113.9c-5.2 0-10 4.2-10 10v415.4c0 5.8 4.8 10 10 10 1.7 0 3.4-0.4 5-1.4l359.7-207.7c6.7-3.8 6.7-13.5 0-17.3L387.1 295.7c-1.6-1-3.3-1.4-4.9-1.4z" p-id="11733"></path></svg>