<svg t="1665195749318" class="icon" viewBox="0 0 1024 1024" version="1.1" xmlns="http://www.w3.org/2000/svg" p-id="14956"><path d="M677.624 856.332C627.221 884.246 569.949 899 512 899c-57.95 0-115.221-14.754-165.623-42.668-15.46-8.562-34.934-2.97-43.497 12.49-8.562 15.46-2.97 34.935 12.49 43.497C375.237 945.475 443.23 963 512 963c68.769 0 136.763-17.525 196.63-50.681 15.461-8.562 21.053-28.036 12.491-43.497-8.563-15.46-28.037-21.053-43.497-12.49zM137.076 581.566c0.201 0.003 0.399 0.005 0.599 0.005 17.399 0 31.662-13.943 31.983-31.413 1.08-58.809 17.339-116.553 47.021-166.992 28.859-49.041 69.866-90.515 118.585-119.937 15.128-9.136 19.986-28.806 10.85-43.935-9.136-15.129-28.806-19.986-43.935-10.851-57.787 34.898-106.426 84.092-140.659 142.263-35.257 59.913-54.571 128.476-55.853 198.276-0.323 17.672 13.739 32.259 31.409 32.584zM688.735 263.23c48.72 29.422 89.726 70.896 118.586 119.937 29.682 50.438 45.941 108.183 47.021 166.992 0.32 17.471 14.582 31.413 31.982 31.413 0.198 0 0.399-0.002 0.599-0.005 17.671-0.325 31.732-14.912 31.407-32.582-1.281-69.8-20.595-138.363-55.852-198.276-34.232-58.171-82.872-107.364-140.66-142.263-15.127-9.136-34.799-4.277-43.935 10.851-9.134 15.127-4.277 34.798 10.852 43.933zM953.283 712.432c-8.376-31.257-28.422-57.382-56.446-73.562-57.852-33.4-132.091-13.508-165.493 44.344-33.4 57.853-13.508 132.092 44.344 165.492 18.668 10.778 39.384 16.283 60.377 16.283 10.522 0 21.118-1.384 31.554-4.18 31.257-8.375 57.382-28.422 73.562-56.447 16.178-28.025 20.477-60.673 12.102-91.93z m-67.529 59.93c-7.632 13.22-19.956 22.676-34.7 26.627-14.745 3.951-30.146 1.924-43.366-5.709-27.29-15.756-36.674-50.777-20.918-78.067 10.573-18.314 29.822-28.563 49.589-28.563a56.803 56.803 0 0 1 28.479 7.646c13.22 7.632 22.676 19.956 26.627 34.701 3.949 14.744 1.922 30.145-5.711 43.365zM292.656 683.212c-33.402-57.852-107.643-77.745-165.492-44.343C69.312 672.27 49.419 746.51 82.82 804.362c16.18 28.025 42.305 48.071 73.562 56.446 10.438 2.797 21.029 4.18 31.553 4.18 20.992 0 41.711-5.506 60.377-16.283 57.853-33.401 77.745-107.641 44.344-165.493zM216.312 793.28c-13.22 7.633-28.621 9.66-43.366 5.709s-27.069-13.407-34.701-26.627c-15.756-27.291-6.372-62.311 20.918-78.067 27.291-15.756 62.311-6.372 78.067 20.918s6.373 62.311-20.918 78.067zM512 303.298c66.802 0 121.149-54.347 121.149-121.149S578.802 61 512 61s-121.149 54.347-121.149 121.149S445.198 303.298 512 303.298zM512 125c31.513 0 57.149 25.637 57.149 57.149S543.513 239.298 512 239.298c-31.512 0-57.149-25.637-57.149-57.149S480.488 125 512 125z" p-id="14957"></path></svg>
