<?xml version="1.0" standalone="no"?><!DOCTYPE svg PUBLIC "-//W3C//DTD SVG 1.1//EN" "http://www.w3.org/Graphics/SVG/1.1/DTD/svg11.dtd"><svg t="1680573227586" class="icon" viewBox="0 0 1024 1024" version="1.1" xmlns="http://www.w3.org/2000/svg" p-id="13896" xmlns:xlink="http://www.w3.org/1999/xlink" width="200" height="200"><path d="M562.7 993.8C308 993.8 100.9 786.6 100.9 532c0-26 21.1-47.2 47.2-47.2s47.2 21.1 47.2 47.2c0 202.6 164.8 367.5 367.5 367.5S930.1 734.6 930.1 532 765.3 164.5 562.7 164.5c-74.2 0-145.6 22-206.7 63.6-21.5 14.7-50.9 9.1-65.5-12.4-14.7-21.5-9.1-50.9 12.4-65.5 76.7-52.3 166.6-79.9 259.8-79.9 254.6 0 461.8 207.2 461.8 461.8S817.3 993.8 562.7 993.8z" p-id="13897"></path><path d="M35.8 615.9c-7 0-14-2-20.1-6.3-16.1-11.1-20-33.2-8.9-49.2l91.9-132.5c11.1-16.1 33.2-20.1 49.2-8.9 16.1 11.1 20 33.2 8.9 49.2L64.9 600.7c-6.9 9.9-17.9 15.2-29.1 15.2z" p-id="13898"></path><path d="M260.2 575.3c-7 0-14-2-20.1-6.3l-132.5-91.9c-16.1-11.1-20-33.2-8.9-49.2 11.1-16.1 33.2-20 49.2-8.9l132.5 91.9c16.1 11.1 20 33.2 8.9 49.2-6.9 9.9-17.9 15.2-29.1 15.2z" p-id="13899"></path></svg>