<?xml version="1.0" standalone="no"?><!DOCTYPE svg PUBLIC "-//W3C//DTD SVG 1.1//EN" "http://www.w3.org/Graphics/SVG/1.1/DTD/svg11.dtd"><svg t="1681194326950" class="icon" viewBox="0 0 1024 1024" version="1.1" xmlns="http://www.w3.org/2000/svg" p-id="20650" xmlns:xlink="http://www.w3.org/1999/xlink" width="200" height="200"><path d="M820.48 756.48h-614.4c-73.4208 0-133.12-59.6992-133.12-133.12v-409.6c0-73.4208 59.6992-133.12 133.12-133.12h614.4c73.4208 0 133.12 59.6992 133.12 133.12v409.6c0 73.4208-59.7504 133.12-133.12 133.12z m-614.4-614.4c-39.5264 0-71.68 32.1536-71.68 71.68v409.6c0 39.5264 32.1536 71.68 71.68 71.68h614.4c39.5264 0 71.68-32.1536 71.68-71.68v-409.6c0-39.5264-32.1536-71.68-71.68-71.68h-614.4z" fill="#666666" p-id="20651"></path><path d="M481.93536 727.47008l61.44-0.4096 1.26976 187.9552-61.44 0.4096z" fill="#666666" p-id="20652"></path><path d="M779.52 945.92h-532.48c-16.9472 0-30.72-13.7728-30.72-30.72s13.7728-30.72 30.72-30.72h532.48c16.9472 0 30.72 13.7728 30.72 30.72s-13.7728 30.72-30.72 30.72zM385.28 626.6368a30.66368 30.66368 0 0 1-30.72-30.72V241.2032c0-10.9568 5.8368-21.0944 15.36-26.624a30.76608 30.76608 0 0 1 30.72 0l307.2 177.3568c9.5232 5.4784 15.36 15.616 15.36 26.624a30.72 30.72 0 0 1-15.36 26.624l-307.2 177.3568c-4.7616 2.7648-10.0864 4.096-15.36 4.096z m30.72-332.2368V542.72l215.04-124.16-215.04-124.16z" fill="#666666" p-id="20653"></path></svg>