<svg t="1681781954527" class="icon" viewBox="0 0 1024 1024" version="1.1" xmlns="http://www.w3.org/2000/svg" p-id="5398"><path d="M768 981.333333H256c-72.533333 0-128-55.466667-128-128V170.666667c0-72.533333 55.466667-128 128-128h512c72.533333 0 128 55.466667 128 128v682.666666c0 72.533333-55.466667 128-128 128zM256 128c-25.6 0-42.666667 17.066667-42.666667 42.666667v682.666666c0 25.6 17.066667 42.666667 42.666667 42.666667h512c25.6 0 42.666667-17.066667 42.666667-42.666667V170.666667c0-25.6-17.066667-42.666667-42.666667-42.666667H256z" p-id="5399"></path><path d="M512 810.666667c-12.8 0-21.333333-4.266667-29.866667-12.8-8.533333-8.533333-12.8-17.066667-12.8-29.866667 0-4.266667 0-12.8 4.266667-17.066667 4.266667-4.266667 4.266667-8.533333 8.533333-12.8l4.266667-4.266666c4.266667 0 4.266667-4.266667 8.533333-4.266667s4.266667 0 8.533334-4.266667c12.8-4.266667 29.866667 0 38.4 12.8 4.266667 4.266667 8.533333 8.533333 8.533333 12.8 4.266667 4.266667 4.266667 12.8 4.266667 17.066667 0 12.8-4.266667 21.333333-12.8 29.866667-8.533333 8.533333-17.066667 12.8-29.866667 12.8z" p-id="5400"></path></svg>
