<?xml version="1.0" standalone="no"?><!DOCTYPE svg PUBLIC "-//W3C//DTD SVG 1.1//EN" "http://www.w3.org/Graphics/SVG/1.1/DTD/svg11.dtd"><svg t="1719994095661" class="icon" viewBox="0 0 1024 1024" version="1.1" xmlns="http://www.w3.org/2000/svg" p-id="20109" xmlns:xlink="http://www.w3.org/1999/xlink" width="16" height="16"><path d="M753.371429 482.742857l146.285714 109.714286c14.628571 10.971429 18.285714 36.571429 7.314286 51.2-10.971429 14.628571-36.571429 18.285714-51.2 7.314286l-117.028572-87.771429-69.485714 91.428571 230.4 153.6c18.285714 10.971429 21.942857 32.914286 10.971428 51.2s-32.914286 21.942857-51.2 10.971429l-541.257142-365.714286-142.628572 142.628572c-14.628571 14.628571-36.571429 14.628571-51.2 0-14.628571-14.628571-14.628571-36.571429 0-51.2l164.571429-164.571429c7.314286-7.314286 14.628571-10.971429 21.942857-10.971428 3.657143 0 10.971429 0 14.628571 3.657142 3.657143 0 3.657143 3.657143 7.314286 3.657143l277.942857 186.514286 95.085714-124.342857c7.314286-14.628571 32.914286-18.285714 47.542858-7.314286zM914.285714 36.571429c62.171429 0 109.714286 47.542857 109.714286 109.714285v731.428572c0 62.171429-47.542857 109.714286-109.714286 109.714285H109.714286c-62.171429 0-109.714286-47.542857-109.714286-109.714285V146.285714c0-62.171429 47.542857-109.714286 109.714286-109.714285h804.571428z m0 73.142857H109.714286c-21.942857 0-36.571429 14.628571-36.571429 36.571428v731.428572c0 21.942857 14.628571 36.571429 36.571429 36.571428h804.571428c21.942857 0 36.571429-14.628571 36.571429-36.571428V146.285714c0-21.942857-14.628571-36.571429-36.571429-36.571428zM548.571429 146.285714c80.457143 0 146.285714 65.828571 146.285714 146.285715s-65.828571 146.285714-146.285714 146.285714-146.285714-65.828571-146.285715-146.285714 65.828571-146.285714 146.285715-146.285715z m0 73.142857c-40.228571 0-73.142857 32.914286-73.142858 73.142858s32.914286 73.142857 73.142858 73.142857 73.142857-32.914286 73.142857-73.142857-32.914286-73.142857-73.142857-73.142858z" p-id="20110"></path></svg>