<?xml version="1.0" standalone="no"?><!DOCTYPE svg PUBLIC "-//W3C//DTD SVG 1.1//EN" "http://www.w3.org/Graphics/SVG/1.1/DTD/svg11.dtd"><svg t="1708420178045" class="icon" viewBox="0 0 1024 1024" version="1.1" xmlns="http://www.w3.org/2000/svg" p-id="19427" xmlns:xlink="http://www.w3.org/1999/xlink" width="128" height="128"><path d="M812 892H212c-71.68 0-130-58.32-130-130V262c0-71.68 58.32-130 130-130h600c71.68 0 130 58.32 130 130v500c0 71.68-58.32 130-130 130zM212 192c-38.59 0-70 31.41-70 70v500c0 38.59 31.41 70 70 70h600c38.59 0 70-31.41 70-70V262c0-38.59-31.41-70-70-70H212z" p-id="19428"></path><path d="M272 892c-16.57 0-30-13.44-30-30V162c0-16.57 13.43-30 30-30s30 13.43 30 30v700c0 16.56-13.43 30-30 30zM752 892c-16.56 0-30-13.44-30-30V162c0-16.57 13.44-30 30-30s30 13.43 30 30v700c0 16.56-13.44 30-30 30zM435.39 650.54c-8.59 0-17.18-2.25-25-6.78-15.65-9.04-25-25.21-25-43.3V423.53c0-18.08 9.35-34.27 25.01-43.3 15.65-9.04 34.35-9.03 50 0.01l153.22 88.45c0 0.01 0.02 0.01 0.02 0.02 15.64 9.04 24.98 25.22 24.98 43.29s-9.34 34.26-24.98 43.3l-153.25 88.46c-7.83 4.53-16.42 6.78-25 6.78z m10-209.68v142.28L568.62 512l-123.23-71.14z" p-id="19429"></path><path d="M912 432H752c-16.56 0-30-13.43-30-30s13.44-30 30-30h160c16.56 0 30 13.43 30 30s-13.44 30-30 30zM912 652H752c-16.56 0-30-13.44-30-30s13.44-30 30-30h160c16.56 0 30 13.44 30 30s-13.44 30-30 30zM272 432H112c-16.57 0-30-13.43-30-30s13.43-30 30-30h160c16.57 0 30 13.43 30 30s-13.43 30-30 30zM272 652H112c-16.57 0-30-13.44-30-30s13.43-30 30-30h160c16.57 0 30 13.44 30 30s-13.43 30-30 30z" p-id="19430"></path></svg>