<?xml version="1.0" standalone="no"?><!DOCTYPE svg PUBLIC "-//W3C//DTD SVG 1.1//EN" "http://www.w3.org/Graphics/SVG/1.1/DTD/svg11.dtd"><svg t="1719994078981" class="icon" viewBox="0 0 1024 1024" version="1.1" xmlns="http://www.w3.org/2000/svg" p-id="19744" xmlns:xlink="http://www.w3.org/1999/xlink" width="16" height="16"><path d="M704.6 463H302.1c-9.3 0-16.8-11.7-16.8-26.2s7.5-26.2 16.8-26.2h402.5c9.3 0 16.8 11.7 16.8 26.2s-7.5 26.2-16.8 26.2z m0 149.5H302.1c-9.3 0-16.8-11.7-16.8-26.2s7.5-26.2 16.8-26.2h402.5c9.3 0 16.8 11.7 16.8 26.2s-7.5 26.2-16.8 26.2z m0 167.7H302.1c-9.3 0-16.8-11.7-16.8-26.2s7.5-26.2 16.8-26.2h402.5c9.3 0 16.8 11.7 16.8 26.2s-7.5 26.2-16.8 26.2z" p-id="19745"></path><path d="M236.5 64.6h471.8L894 261.2v585.4c0 61.7-54.6 111.7-114.6 111.7H236.5c-59.9 0-108.6-50-108.6-111.7V176.3c0-61.7 48.6-111.7 108.6-111.7z m434 63.9V262c0 6.9 2.7 13.5 7.6 18.4 4.9 4.9 11.5 7.6 18.4 7.6H830L670.5 128.5z m106.4 766c29.4 0 53.2-24.5 53.2-54.7V347.3H670.5c-29.4 0-53.2-24.5-53.2-54.7V128.5H245c-29.4 0-53.2 24.5-53.2 54.7v656.6c0 30.2 23.8 54.7 53.2 54.7h531.9z m0 0" p-id="19746"></path></svg>