<?xml version="1.0" standalone="no"?><!DOCTYPE svg PUBLIC "-//W3C//DTD SVG 1.1//EN" "http://www.w3.org/Graphics/SVG/1.1/DTD/svg11.dtd"><svg t="1719994100174" class="icon" viewBox="0 0 1024 1024" version="1.1" xmlns="http://www.w3.org/2000/svg" p-id="20322" xmlns:xlink="http://www.w3.org/1999/xlink" width="16" height="16"><path d="M913.07 68.1h-460.1c-76.53 0-138.79 62.26-138.79 138.79V332.6H205.67c-76.53 0-138.79 62.26-138.79 138.79V913.3c0 25.55 20.71 46.26 46.26 46.26h441.91c76.53 0 138.79-62.26 138.79-138.79V713.25h126.7c76.53 0 138.79-62.26 138.79-138.79v-460.1c0-25.55-20.71-46.26-46.26-46.26zM601.32 820.77c0 25.51-20.75 46.26-46.26 46.26H159.4V471.38c0-25.51 20.75-46.26 46.26-46.26h108.51v241.87c0 25.55 20.71 46.26 46.26 46.26h240.88v107.52z m265.49-246.31c0 25.51-20.75 46.26-46.26 46.26H406.7V206.89c0-25.51 20.75-46.26 46.26-46.26H866.8v413.83z" p-id="20323" ></path></svg>